<?xml version="1.0" encoding="utf-8"?>
<!-- Generator: Adobe Illustrator 26.5.0, SVG Export Plug-In . SVG Version: 6.00 Build 0)  -->
<svg version="1.1" id="Calque_1" xmlns="http://www.w3.org/2000/svg" xmlns:xlink="http://www.w3.org/1999/xlink" x="0px" y="0px"
	 viewBox="0 0 600 600" style="enable-background:new 0 0 600 600;" xml:space="preserve">
<style type="text/css">
	.st0{fill:#ED730A;}
</style>
<g>
	<path class="st0" d="M176.4,77.6c-12.7-6-22.6-10.7-34-16.1c20.6-15.9,42.1-26,66.6-29.9c26.9-4.3,53.6-1.7,80.5,1.8
		c13.8,1.8,28.3-1,42.3-2.7c44.4-5.4,86,1.2,123.1,27.8c0.8,0.6,1.3,1.6,2.7,3.2c-10.6,5-20.8,9.8-33.3,15.7
		c92.6,46.2,120.2,123.8,112.9,219.8c-6.8-1-13-1.9-20.1-3c-2,72.1-20.5,136.3-80,183.6c-2.6-3.7-5-7-8.2-11.4
		c-2.7,3.4-5,6.4-7.3,9.3c-29.2,38.2-62.4,71.4-107,91.7c-10.4,4.8-19.6,4.4-29.8-0.4c-43.3-20.2-76-52.5-104.6-89.7
		c-2.6-3.4-5.2-6.8-8.2-10.8c-1.8,2.2-3.1,3.8-4.3,5.5c-1.2,1.7-2.3,3.5-3.9,5.9c-59.8-47-78.3-111.5-80.3-184.1
		c-7,1.3-12.9,2.4-19.8,3.6C58.9,252.9,63.2,210,82,169.2C101.2,127.7,133.2,98.7,176.4,77.6z M274,351.4c0.4-0.9,0.7-1.9,1.1-2.8
		c16.8,0,33.7,0,50.5,0c0.3,1,0.7,2,1,3c-3.2,3.1-6.9,5.8-9.6,9.3c-4.1,5.2-8,10.6-11.2,16.4c-3.9,7.1-0.6,10.8,6.8,13.3
		c15.7,5.2,31.3,10.7,46.5,17.2c8.2,3.5,12.5,1,16.9-5.6c15.4-23.3,8.4-45.4-3.7-66.9c-4.8-8.6-11.1-16.4-16.8-24.8
		c5.5-5.2,10.6-10.1,16.6-15.7c6.6,8.1,12.6,15.5,19.5,24c11-11.9,20.8-23.8,31.9-34.3c10.3-9.7,12.2-19.8,9.8-33.6
		c-12.1-68.5-55-99.7-123.9-89.1c-5.6,0.9-11.5,0.4-17.2,0.2c-11.8-0.5-23.7-2.3-35.4-1.9c-26.9,0.9-49.4,11.5-65.7,33.6
		c-15.5,21.1-23.3,45.1-25.2,71.1c-0.2,3,0.1,7,1.9,9c13.3,15,27,29.7,41,45c6.9-8.4,13.1-16,18.9-23c6.5,5.5,11.9,10.1,15.9,13.5
		c-8.8,16.4-17.9,30.6-24.3,46c-7.1,16.9-4.4,33.8,6.7,49c3.8,5.1,7.4,6.6,13.7,4c14.3-5.8,28.9-10.9,43.4-16.1
		c14.3-5.1,16.7-15.3,6.1-26.7c-1.9-2.1-4.6-3.4-6.7-5.3C279.5,357.4,276.8,354.4,274,351.4z M367.9,439.2c-3.1,6.9-5,14.7-9.5,20.3
		c-9.5,11.9-22.7,10.8-35.6,6.5c-15.2-5-30.1-5.3-45.4-0.1c-5.9,2-12.8,3-19,2.3c-17.6-2-22.8-15.3-24.8-28.5
		c-5.2-2.6-9.6-3.9-12.9-6.5c-25.9-21.5-34.2-48.7-25.9-81.2c0.9-3.4,2.3-7.4,1.3-10.3c-7.2-20.5-26.7-28.5-45.2-17
		c-22.5,13.9-43.9,34.2-23.9,68.3c9,15.3,18.1,30.5,28.6,48.2c5.9-10.5,9.8-17.4,14.2-25.3c2.6,4.6,4.3,7.7,6.1,10.8
		c28,48.1,63.5,88.8,113.2,115.6c7.8,4.2,14.2,4.2,22.1,0c43.7-23.4,76.2-58.3,103.2-99c5.6-8.5,10.6-17.6,16.4-27.2
		c4.4,8,8.1,14.8,12.5,22.9c19.7-21.5,31.8-45.1,39-71.4c0.5-1.9-0.1-4.4-0.9-6.3c-6.7-15.1-16-28.1-30.8-36.3
		c-18.5-10.3-23.4-9.4-37.5,6.1c-1,1.1-1.9,2.2-2.9,3.2c-5.8,4.9-6.9,10.1-4.8,18c8.7,32.2,0.2,59.6-25.7,81.1
		C376.4,435.9,372,437.2,367.9,439.2z M405.2,59.9c-4.7-2-6.5-3.1-8.5-3.5c-28.9-7.1-57.6-4.7-86.4,1.5c-6.3,1.4-13.2,0.7-19.7,0.2
		c-20.7-1.7-41.3-4.7-62-5.5c-10.3-0.4-20.6,3.1-31,4.8c0,1.2-0.1,2.3-0.1,3.5c16.1,7.3,32.1,14.6,49.9,22.6
		c-24.4,5.9-48.1,6.7-68.1,19.7c0.4,1.3,0.3,2.3,0.8,2.6c12.7,10.1,24.6,20.9,31.4,36.2c0.7,1.6,5.9,2.1,8.8,1.6
		c10.9-1.8,21.6-5.8,32.5-6.1c16.4-0.6,33.1,3.3,49.3,1.6c28.8-3.1,57-4.5,82,6c12.8-14.9,24.6-28.5,36.7-42.6
		c-20-12.3-43.9-13.3-68.2-19C370.2,75.7,386.4,68.4,405.2,59.9z M99.8,187.4c19,7.9,36.3,15,54.6,22.6c-0.7,0.8,0.6-0.1,1.1-1.3
		c7.8-17.6,18.4-33.2,32.6-46.4c2.1-1.9,2.7-7.4,1.7-10.4c-5.5-16.2-18.1-25.3-33.4-31.3c-2.2-0.9-6.1-0.3-7.9,1.2
		C126.2,139.8,108.6,161.5,99.8,187.4z M500.1,187.5c0,1.3,0.3,0.1,0-0.8c-9.3-26.5-26.3-47.5-47.9-64.9c-2-1.6-6.3-1.8-8.9-0.9
		c-14.8,5.4-25.8,15.2-32.7,29.5c-2.7,5.6-1.4,9.3,3.1,14c8.8,9.4,16.5,19.7,24.1,30.2c3.8,5.3,6.3,11.6,8.2,15.3
		C464.3,202.3,481.2,195.3,500.1,187.5z M447,294.5c14.7,10.3,28.9,20.2,44.3,31c0-20.7,0-41.2,0-62.2c7.8,1.4,14.9,2.6,24.8,4.4
		c-2.1-17.5-3.8-33.1-6.2-48.5c-0.3-1.9-4.6-4.7-7-4.6c-16.7,0.8-31.9,6.1-42.4,19.8c-2.8,3.7-4.1,9.8-3.5,14.5
		c2.1,16.4,6.5,32.8-9.9,45C446.7,294.2,446.9,295.2,447,294.5z M109.2,325.2c15.9-11,30-20.9,45.1-31.3
		c-15.3-9.2-15.1-23.4-11.5-38.5c0.1-0.3,0-0.7,0.1-1.1c4.8-13.5-2.3-22.9-12.6-28.8c-9.4-5.3-20.4-7.9-31-10.9
		c-2.4-0.7-8.2,1.9-8.5,3.6c-2.6,15.9-4.2,32-6.4,49.7c10.3-2.1,17.2-3.4,24.7-4.9C109.2,284.3,109.2,304.8,109.2,325.2z
		 M260.7,443.9c2.9-0.3,6.2,0,9.1-1c20.5-7.2,40.7-7,61.3,0c2.9,1,9.7-1.3,10.1-3c1-5,3.4-11.2-4.3-14.6c-20.6-8.9-41-17.9-62.9-3.8
		c-0.9,0.6-2.1,0.6-3.1,1C257.4,427.4,257,428.2,260.7,443.9z"/>
	<path class="st0" d="M226.8,250.3c-4.5-3.3-9.3-6.9-14.2-10.6c0.4-1.2,0.9-2.4,1.3-3.5c13.2,0.7,26.6,0.3,39.6,2.5
		c9.6,1.6,15.3,9.7,15.9,19.5c0.8,11,0.2,22,0.2,34.6c-3.3-2.9-5.5-4.6-7.3-6.7c-4.4-5-8.8-6.3-15.9-4.8c-5.9,1.3-13.6-0.5-19.1-3.5
		C217.7,272.5,217.8,264.9,226.8,250.3z"/>
	<path class="st0" d="M387.7,239c-4.8,3.6-9.7,7.1-14.5,10.7c1.6,0.6,3.2,1.3,4.7,1.9c-0.3,7.7,2,16.9-1.4,22.7
		c-5.3,8.9-15.6,8.6-26.1,7.2c-5.6-0.8-12.1,4.6-18.9,7.5c0-11.2-1.5-23.4,0.5-35c1.7-10,9.8-16.7,20.8-17.1
		c11.1-0.4,22.2-0.1,33.3-0.1C386.7,237.6,387.2,238.3,387.7,239z"/>
</g>
</svg>
